{
	"asset":{
		"generator":"Khronos glTF Blender I/O v5.0.21",
		"version":"2.0"
	},
	"scene":0,
	"scenes":[
		{
			"name":"Scene",
			"nodes":[
				0
			]
		}
	],
	"nodes":[
		{
			"mesh":0,
			"name":"Character_vat"
		}
	],
	"meshes":[
		{
			"name":"Character_mesh",
			"primitives":[
				{
					"attributes":{
						"POSITION":0,
						"NORMAL":1,
						"TEXCOORD_0":2,
						"TEXCOORD_1":3,
						"TANGENT":4
					},
					"indices":5
				}
			]
		}
	],
	"accessors":[
		{
			"bufferView":0,
			"componentType":5126,
			"count":1696,
			"max":[
				0.4716455936431885,
				0.6188344955444336,
				0.012736605480313301
			],
			"min":[
				-1.0463342666625977,
				-0.5777782201766968,
				-4.412667751312256
			],
			"type":"VEC3"
		},
		{
			"bufferView":1,
			"componentType":5126,
			"count":1696,
			"type":"VEC3"
		},
		{
			"bufferView":2,
			"componentType":5126,
			"count":1696,
			"type":"VEC2"
		},
		{
			"bufferView":3,
			"componentType":5126,
			"count":1696,
			"type":"VEC2"
		},
		{
			"bufferView":4,
			"componentType":5126,
			"count":1696,
			"type":"VEC4"
		},
		{
			"bufferView":5,
			"componentType":5123,
			"count":9420,
			"type":"SCALAR"
		}
	],
	"bufferViews":[
		{
			"buffer":0,
			"byteLength":20352,
			"byteOffset":0,
			"target":34962
		},
		{
			"buffer":0,
			"byteLength":20352,
			"byteOffset":20352,
			"target":34962
		},
		{
			"buffer":0,
			"byteLength":13568,
			"byteOffset":40704,
			"target":34962
		},
		{
			"buffer":0,
			"byteLength":13568,
			"byteOffset":54272,
			"target":34962
		},
		{
			"buffer":0,
			"byteLength":27136,
			"byteOffset":67840,
			"target":34962
		},
		{
			"buffer":0,
			"byteLength":18840,
			"byteOffset":94976,
			"target":34963
		}
	],
	"buffers":[
		{
			"byteLength":113816,
			"uri":"Character.bin"
		}
	]
}
